<mxfile host="app.diagrams.net" modified="2023-06-09T02:25:08.097Z" agent="Mozilla/5.0 (Windows NT 10.0; Win64; x64) AppleWebKit/537.36 (KHTML, like Gecko) Chrome/95.0.4638.69 Safari/537.36" version="21.3.7" etag="d3MU-q8IXVvdJQ4MHA4f" type="github">
  <diagram name="第 1 页" id="P1LBLekU6w9O6MCNf73u">
    <mxGraphModel>
      <root>
        <mxCell id="0" />
        <mxCell id="1" parent="0" />
      </root>
    </mxGraphModel>
  </diagram>
</mxfile>
